<?xml version="1.0" encoding="UTF-8" standalone="no"?>
<svg
   xmlns:dc="http://purl.org/dc/elements/1.1/"
   xmlns:cc="http://creativecommons.org/ns#"
   xmlns:rdf="http://www.w3.org/1999/02/22-rdf-syntax-ns#"
   xmlns:svg="http://www.w3.org/2000/svg"
   xmlns="http://www.w3.org/2000/svg"
   version="1.1"
   viewBox="0 0 64 64">
  <defs
     id="defs10" />
  <path
     id="path4140"
     d="m 18.853653,12.922772 a 7.8456381,8.3065635 0 0 1 -7.845642,8.306562 7.8456381,8.3065635 0 0 1 -7.8456399,-8.306562 7.8456381,8.3065635 0 0 1 7.8456399,-8.306564 7.8456381,8.3065635 0 0 1 7.845642,8.306564 z"
     style="opacity:1;fill:none;fill-opacity:1;stroke-width:4;stroke-linecap:butt;stroke-linejoin:miter;stroke-miterlimit:4;stroke-dasharray:none;stroke-dashoffset:0;stroke-opacity:1" />
  <path
     id="path4156"
     d="M 17.886728,54.8224 2,54.8224 c 0,-15.495854 2.8767444,-28.29038 8.878847,-28.29038 6.002102,-3e-6 7.007881,12.794526 7.007881,28.29038 z"
     style="opacity:1;fill:none;fill-opacity:1;stroke-width:4;stroke-linecap:butt;stroke-linejoin:miter;stroke-miterlimit:4;stroke-dasharray:none;stroke-dashoffset:0;stroke-opacity:1" />
  <path
     id="path4140-6"
     d="m 60.472987,12.887715 a 7.8456381,8.3065635 0 0 1 -7.845645,8.306563 7.8456381,8.3065635 0 0 1 -7.84564,-8.306563 7.8456381,8.3065635 0 0 1 7.84564,-8.3065626 7.8456381,8.3065635 0 0 1 7.845645,8.3065626 z"
     style="opacity:1;fill:none;fill-opacity:1;stroke-width:4;stroke-linecap:butt;stroke-linejoin:miter;stroke-miterlimit:4;stroke-dasharray:none;stroke-dashoffset:0;stroke-opacity:1" />
  <path
     id="path4156-2"
     d="m 61.668889,54.766276 -15.886728,0 c 0,-15.495837 1.005772,-28.290377 7.007874,-28.290377 6.002104,0 8.878854,12.79454 8.878854,28.290377 z"
     style="opacity:1;fill:none;fill-opacity:1;stroke-width:4;stroke-linecap:butt;stroke-linejoin:miter;stroke-miterlimit:4;stroke-dasharray:none;stroke-dashoffset:0;stroke-opacity:1" />
  <path
     id="path4140-6-9"
     d="m 39.700834,20.121439 a 7.8456381,8.3065635 0 0 1 -7.845644,8.306563 7.8456381,8.3065635 0 0 1 -7.845642,-8.306563 7.8456381,8.3065635 0 0 1 7.845642,-8.306563 7.8456381,8.3065635 0 0 1 7.845644,8.306563 z"
     style="opacity:1;fill:none;fill-opacity:1;stroke-width:4;stroke-linecap:butt;stroke-linejoin:miter;stroke-miterlimit:4;stroke-dasharray:none;stroke-dashoffset:0;stroke-opacity:1" />
  <path
     id="path4156-2-9"
     d="m 40.896737,62 -17.888036,0 c 0,-15.495837 3.007081,-28.290379 9.009182,-28.290379 6.002104,0 8.878854,12.794542 8.878854,28.290379 z"
     style="opacity:1;fill:none;fill-opacity:1;stroke-width:4;stroke-linecap:butt;stroke-linejoin:miter;stroke-miterlimit:4;stroke-dasharray:none;stroke-dashoffset:0;stroke-opacity:1" />
</svg>
